<?xml version="1.0" encoding="UTF-8" standalone="no"?>
<svg width="513px" height="547px" viewBox="0 0 513 547" version="1.1" xmlns="http://www.w3.org/2000/svg" xmlns:xlink="http://www.w3.org/1999/xlink">
    <defs></defs>
    <g id="map" stroke="none" stroke-width="1" fill="none" fill-rule="evenodd">
        <polygon id="uganda" fill="#FFD82E" points="364.506022 266.661132 361.05013 263.976725 361.05013 255.051107 362.053711 254.054362 379.124023 254.054362 386.37687 248.964993 389.964355 255.051107 390.162436 258.025065 394.084311 261.18929 394.084311 271.063476 379.69873 291.888185 357.210286 291.888185 355.936361 293.88672 352.835775 293.88672 353.185384 279.13623 358.437826 272.176433" opacity="0"></polygon>
        <polygon id="kenya" fill="#FFD82E" points="391.722806 271.018006 391.722806 261.976878 388.503826 259.419911 387.98636 254.588142 384.087877 250.839816 388.503826 247.046938 406.283786 247.046938 415.22129 252.920569 427.294937 255.054125 431.614851 250.424656 437.258791 249.202935 442.189236 251.994543 447.030247 252.427525 439.767574 261.62277 439.767574 290.262578 444.237316 294.562032 433.711445 305.189877 425.72208 320.137971 413.981748 312.717553 413.981748 308.137913 381.277788 287.093762" opacity="1"></polygon>
        <polygon id="tanzania" opacity="0" fill="#FFD82E" points="358.206015 300.264385 361.13293 297.902128 358.581903 292.033117 358.206015 290.102521 378.930092 290.102521 382.580362 285.246661 415.088952 305.841992 416.486573 312.223847 426.486398 318.268755 421.93316 331.04402 427.499879 338.480936 425.482488 342.115408 425.482488 346.996348 425.482488 348.530596 427.971467 356.43812 429.478654 362.298876 432.87848 364.378313 432.87848 366.274912 427.499879 369.905756 420.964895 372.039309 412.929326 372.039309 411.56801 374.019076 399.93427 374.019076 398.826406 373.472239 387.214122 373.075564 382.580362 358.315913 376 356.802126 367.524686 352.754145 361.13293 347.947787 358.206015 342.115408 352.507623 334.376524 350.160546 325.061484 350.160546 316.31275 355.590965 314.937241 360.485437 306.596739 359.106629 305.140375 358.581903 302.249762"></polygon>
        <path d="M152.329102,209.775879 L154.256836,206.32373 L154.256836,203.533691 L156.138672,201.971191 L156.138672,199.04541 L154.256836,197.882324 L154.256836,189.010742 L155.516113,186.431641 L158.08252,184.760742 L159.487305,180.337891 L161.886719,178.764648 L164.224121,178.045898 L172.110352,178.045898 L177.863281,180.931152 L181.452148,183.601562 L185.419556,181.071411 L188.756348,181.071411 L194.145996,185.032104 L199.969482,185.032104 L205.440796,181.071411 L217.056519,180.931152 L219.487793,182.579712 C219.487793,182.579712 220.612149,182.615977 220.676025,182.579712 C223.451993,181.003673 228.042847,178.045898 228.042847,178.045898 L230.94873,178.045898 L233.981445,181.635254 L233.981445,186.859253 L237.019897,189.515747 L237.019897,194.963379 L231.794678,198.481567 L228.716187,202.554443 C228.716187,202.554443 227.797363,206.783684 226.163086,211.08252 C226.141154,211.140211 224.138916,216.89502 224.138916,216.89502 L219.934082,220.900269 L214.811768,233.399902 L213.674805,234.809814 C213.674805,234.809814 211.251151,235.215707 210.552002,234.809814 C209.183117,234.015105 207.283691,232.033813 207.283691,232.033813 L200.136108,232.033813 L195.175537,239.298218 L190.859985,247.418945 L189.11853,249.233398 L183.282471,249.233398 L181.452148,248.124512 L177.863281,250.063232 L171.700562,250.063232 L168.887085,246.84436 L165.758667,239.298218 L161.672607,235.945068 L158.658203,234.999634 L148.109863,234.999634 L148.109863,217.231934 L152.329102,209.775879 Z" id="nigeria" opacity="0" fill="#FFD82E"></path>
    </g>
</svg>